<svg width="94" height="94" viewBox="0 0 94 94" fill="none" xmlns="http://www.w3.org/2000/svg">
<path fill-rule="evenodd" clip-rule="evenodd" d="M94 47C94 72.9574 72.9574 94 47 94C21.0426 94 0 72.9574 0 47C0 21.0426 21.0426 0 47 0C72.9574 0 94 21.0426 94 47ZM33 30C33 27.7909 34.7909 26 37 26C39.2091 26 41 27.7909 41 30V63C41 65.2091 39.2091 67 37 67C34.7909 67 33 65.2091 33 63V30ZM57 26C54.7909 26 53 27.7909 53 30V63C53 65.2091 54.7909 67 57 67C59.2091 67 61 65.2091 61 63V30C61 27.7909 59.2091 26 57 26Z" fill="white"/>
</svg>
