<svg width="107" height="109" viewBox="0 0 107 109" fill="none" xmlns="http://www.w3.org/2000/svg">
<rect y="33" width="56" height="43" rx="9" fill="white"/>
<path d="M5.86016 58.5976C3.01377 56.6073 3.01377 52.3927 5.86016 50.4024L59.6348 12.8012C62.9489 10.4839 67.5 12.8549 67.5 16.8989L67.5 92.1011C67.5 96.1451 62.9489 98.5161 59.6348 96.1988L5.86016 58.5976Z" fill="white"/>
<path fill-rule="evenodd" clip-rule="evenodd" d="M77 79.6656L79.0745 81.7401C82.6032 78.2115 85.4022 74.0224 87.3119 69.412C89.2216 64.8017 90.2045 59.8603 90.2045 54.8701C90.2045 49.8798 89.2216 44.9385 87.3119 40.3281C85.4022 35.7177 82.6032 31.5286 79.0745 28L77 30.0745C79.6316 33.1307 81.7639 36.591 83.3119 40.3281C85.2216 44.9385 86.2045 49.8798 86.2045 54.8701C86.2045 59.8603 85.2216 64.8017 83.3119 69.412C81.7639 73.1492 79.6316 76.6095 77 79.6656Z" fill="white"/>
<path fill-rule="evenodd" clip-rule="evenodd" d="M90 90.0417L91.539 91.5808C96.3704 86.7494 100.203 81.0137 102.818 74.7012C105.432 68.3887 106.778 61.623 106.778 54.7904C106.778 47.9578 105.432 41.1921 102.818 34.8796C100.203 28.5671 96.3704 22.8314 91.539 18L90 19.539C94.1395 24.0327 97.4591 29.2247 99.8014 34.8796C102.416 41.1921 103.762 47.9578 103.762 54.7904C103.762 61.623 102.416 68.3887 99.8014 74.7012C97.4591 80.3561 94.1395 85.5481 90 90.0417Z" fill="white"/>
</svg>
